<?xml version="1.0" standalone="no"?><!DOCTYPE svg PUBLIC "-//W3C//DTD SVG 1.1//EN" "http://www.w3.org/Graphics/SVG/1.1/DTD/svg11.dtd"><svg t="1678105772210" class="icon" viewBox="0 0 1024 1024" version="1.1" xmlns="http://www.w3.org/2000/svg" p-id="1339" xmlns:xlink="http://www.w3.org/1999/xlink" width="200" height="200"><path d="M369.066667 798.08a21.333333 21.333333 0 0 1-15.146667-6.4l-144.64-144.426667a21.333333 21.333333 0 0 1 0-29.866666l380.8-397.013334A105.173333 105.173333 0 0 1 677.12 192a149.333333 149.333333 0 0 1 88.533333 42.666667 149.333333 149.333333 0 0 1 42.666667 88.533333 104.533333 104.533333 0 0 1-28.373333 86.613333L384 792.106667a21.333333 21.333333 0 0 1-14.933333 5.973333z m-114.773334-166.4L369.28 746.666667l381.866667-366.72A61.653333 61.653333 0 0 0 768 328.533333a105.386667 105.386667 0 0 0-31.573333-64 106.666667 106.666667 0 0 0-63.786667-29.866666 64 64 0 0 0-52.053333 16.213333z" fill="#FF6863" p-id="1340"></path><path d="M179.2 857.6a35.626667 35.626667 0 0 1-34.56-45.226667l53.546667-175.786666a21.333333 21.333333 0 0 1 36.48-8.746667L373.333333 768a21.333333 21.333333 0 0 1 5.546667 21.333333 21.333333 21.333333 0 0 1-14.506667 15.36l-175.146666 53.333334a34.346667 34.346667 0 0 1-10.026667-0.426667z m3.84-21.333333z m45.653333-153.6l-39.253333 128 128-39.04zM363.733333 661.333333a21.333333 21.333333 0 0 1-15.146666-36.48l289.706666-290.346666a21.333333 21.333333 0 0 1 30.293334 0 21.333333 21.333333 0 0 1 0 30.08L378.88 654.293333a21.333333 21.333333 0 0 1-15.146667 7.04zM579.626667 711.253333a48.853333 48.853333 0 0 1-34.773334-14.293333 21.333333 21.333333 0 0 1 0-30.293333 21.333333 21.333333 0 0 1 30.08 0 5.546667 5.546667 0 0 0 9.173334 0l186.24-186.24a6.4 6.4 0 0 0 1.92-4.693334 6.4 6.4 0 0 0-1.92-4.48l-40.106667-40.106666a21.333333 21.333333 0 0 1 30.293333-30.08l40.106667 40.106666a49.28 49.28 0 0 1 0 69.333334l-186.453333 186.453333a48.853333 48.853333 0 0 1-34.56 14.293333z" fill="#FF6863" p-id="1341"></path></svg>