<?xml version="1.0" standalone="no"?><!DOCTYPE svg PUBLIC "-//W3C//DTD SVG 1.1//EN" "http://www.w3.org/Graphics/SVG/1.1/DTD/svg11.dtd"><svg t="1678022028919" class="icon" viewBox="0 0 1024 1024" version="1.1" xmlns="http://www.w3.org/2000/svg" p-id="1368" xmlns:xlink="http://www.w3.org/1999/xlink" width="200" height="200"><path d="M247.48714667 315.17240889h423.25333333c9.74051555 0 17.63555555-7.89504 17.63555555-17.63555556s-7.89504-17.63555555-17.63555555-17.63555555h-423.25333333c-9.74051555 0-17.63555555 7.89504-17.63555556 17.63555555s7.89504 17.63555555 17.63555556 17.63555556z m581.97333333 70.54222222V50.64590222l-74.06933333 70.54336-74.06933334-70.54336-74.06933333 70.54336-74.06819555-70.54336-74.06933334 70.54336-74.06933333-70.54222222-74.06933333 70.54222222-74.06819556-70.54336-74.06933334 70.54336-74.06933333-70.54222222v917.03409778l74.06933333-70.54222223 74.06933334 70.54336 74.06819556-70.54336 74.06933333 70.54222223 74.06933333-70.54222223 74.06933334 70.54336 74.06819555-70.54336 74.06933333 70.54336 74.06933334-70.54336 74.06933333 70.54336V773.69685333h105.81333333v-387.98222222h-105.81333333z m-3.52824889-282.17457778l0.00682667 0.00682667h-0.01251556l0.00568889-0.00682667z m0 811.24920889l-0.00796444-0.00796444h0.01479111l-0.00682667 0.00796444z m74.07047111-176.36352h-105.81333333c-9.74051555 0-17.63555555 7.89504-17.63555556 17.63555556s7.89504 17.63555555 17.63555556 17.63555555v110.85937778l-42.32533334-40.31032889-74.06933333 70.54336-74.06819555-70.54336-74.06933334 70.54336-74.06933333-70.54222222-74.06933333 70.54222222-74.06819556-70.54336-74.06933333 70.54336-74.06933333-70.54336-35.27111112 33.59175111v-737.34826666l35.27111112 33.59175111 74.06933333-70.54222223 74.06933333 70.54222223 74.06819556-70.54222223 74.06933333 70.54108445 74.06933333-70.54108445 74.06933334 70.54222223 74.06819555-70.54222223 74.06933333 70.54222223 42.32533334-40.30919111v251.94268444h-458.52444444v35.27111111h-88.17777778c-9.74051555 0-17.63555555 7.89504-17.63555556 17.63555556s7.89504 17.63555555 17.63555556 17.63555555h88.17777778v105.81333334h-88.17777778c-9.74051555 0-17.63555555 7.89504-17.63555556 17.63555555s7.89504 17.63555555 17.63555556 17.63555556h88.17777778v105.81333333h-88.17777778c-9.74051555 0-17.63555555 7.89504-17.63555556 17.63555556s7.89504 17.63555555 17.63555556 17.63555555h88.17777778v35.27111111h246.89777777c9.74051555 0 17.63555555-7.89504 17.63555556-17.63555555s-7.89504-17.63555555-17.63555556-17.63555556h-211.62666667v-317.44h529.06666667v317.44z m-370.34666667-105.81333333h88.23011556v51.03388444c0 10.82481778 7.84952889 19.60163555 17.53088 19.60163556 9.68476445 0 17.53201778-8.77681778 17.53201778-19.60163556v-51.03388444h88.33251556c9.74051555 0 17.63555555-7.89504 17.63555555-17.63555556s-7.89504-17.63555555-17.63555555-17.63555555h-88.33251556v-35.27111111h70.69696c9.74051555 0 17.63555555-7.89504 17.63555556-17.63555556s-7.89504-17.63555555-17.63555556-17.63555556h-45.60213334l30.1056-30.1056c6.88696889-6.88696889 6.88696889-18.05312 0-24.94008888s-18.05312-6.88696889-24.94008888 0l-47.74115556 47.74115555-47.74115556-47.74115555c-6.88696889-6.88696889-18.05425778-6.88696889-24.94122666 0-6.88696889 6.88696889-6.88696889 18.05312 0 24.94008888l30.10673778 30.1056h-45.60213334c-9.74051555 0-17.63555555 7.89504-17.63555555 17.63555556s7.89504 17.63555555 17.63555555 17.63555556h70.59456v35.27111111h-88.23011555c-9.74051555 0-17.63555555 7.89504-17.63555556 17.63555555 0.00113778 9.74051555 7.89617778 17.63555555 17.63669333 17.63555556z m193.99111112 105.81333333h-35.27111112c-9.74051555 0-17.63555555 7.89504-17.63555555 17.63555556s7.89504 17.63555555 17.63555555 17.63555555h35.27111112c9.74051555 0 17.63555555-7.89504 17.63555555-17.63555555 0-9.73937778-7.89617778-17.63555555-17.63555555-17.63555556z" fill="#231815" p-id="1369"></path></svg>