<?xml version="1.0" standalone="no"?><!DOCTYPE svg PUBLIC "-//W3C//DTD SVG 1.1//EN" "http://www.w3.org/Graphics/SVG/1.1/DTD/svg11.dtd"><svg t="1678022049952" class="icon" viewBox="0 0 1024 1024" version="1.1" xmlns="http://www.w3.org/2000/svg" p-id="1522" xmlns:xlink="http://www.w3.org/1999/xlink" width="200" height="200"><path d="M939.50406379 144.32304352c-0.33516586-31.84075741-26.14293764-57.64852917-57.98369505-57.98369503l-338.85269189-4.18957333c-15.9203787-0.16758294-31.17042566 6.03298562-42.23089928 17.26104216l-59.32435852 59.32435852c81.1101399 232.10236311 121.33004396 473.08662174 70.55241509 726.97476624-2.84890987 17.42862511-6.5357344 35.35999901-10.72530776 53.45895583 10.05497602-2.51374401 19.60720323-7.37364908 27.31601819-15.25004696l398.17705038-398.17705038c11.22805655-11.22805655 17.42862511-26.47810352 17.26104216-42.23089928l-4.18957332-339.18785777zM767.22880797 372.90616508c-28.65668166 28.65668166-75.24473721 28.65668166-103.90141889 0s-28.65668166-75.24473721 0-103.9014189 75.24473721-28.65668166 103.90141889 0 28.82426458 75.07715428 0 103.9014189z" fill="#FFDE55" p-id="1523"></path><path d="M960.45193049 144.15546062c-0.33516586-20.9478667-8.54672961-40.55506994-23.29402779-55.46995105-14.74729817-14.74729817-34.52208433-23.12644485-55.46995103-23.29402779L542.83525979 61.20190844c-21.28303258-0.16758294-42.2308993 8.21156374-57.31336331 23.29402777L87.34484609 482.84056956c-15.08246403 15.08246403-23.29402777 35.02483313-23.29402778 56.30786569 0 21.28303258 8.21156374 41.39298462 23.29402778 56.3078657l343.04226521 343.04226523c15.08246403 15.08246403 35.02483313 23.29402777 56.30786571 23.29402778 21.28303258 0 41.39298462-8.21156374 56.30786573-23.29402778l398.17705037-398.17705037c15.08246403-15.08246403 23.62919365-36.03033073 23.29402778-57.31336334l-4.0219904-338.85269185z m-48.76663369 366.50387592L513.50824641 908.83638692c-7.20606615 7.20606615-16.59071043 11.06047362-26.8132694 11.06047362-10.05497602 0-19.60720323-3.85440749-26.81326938-11.06047362L117.00702537 565.96170465c-7.20606615-7.20606615-11.06047362-16.59071043-11.06047362-26.8132694s3.85440749-19.60720323 11.06047362-26.81326939l398.17705037-398.17705039c7.03848323-7.03848323 16.75829337-11.06047362 26.81326938-11.06047361h0.5027488l338.85269187 4.18957335c20.78028378 0.33516586 37.20341127 16.59071043 37.37099421 37.37099419l4.18957333 338.85269189c0 10.05497602-4.0219904 19.9423691-11.22805653 27.14843525z" fill="" p-id="1524"></path><path d="M648.58009093 254.08986509c-36.8682454 36.8682454-36.8682454 96.69535273 0 133.56359813 17.76379099 17.76379099 41.56056756 27.65118406 66.69800762 27.65118405s48.93421663-9.88739309 66.69800758-27.65118405c36.8682454-36.8682454 36.8682454-96.69535273 0-133.56359813-36.70066247-36.8682454-96.52776979-36.8682454-133.3960152 0z m103.90141886 103.90141886c-9.88739309 9.88739309-23.12644485 15.41762989-37.20341124 15.41762992s-27.14843525-5.53023681-37.20341128-15.41762992c-20.44511791-20.44511791-20.44511791-53.79412171 0-74.2392396 10.22255897-10.22255897 23.62919365-15.41762989 37.20341128-15.4176299 13.40663469 0 26.98085232 5.19507094 37.20341124 15.4176299 20.44511791 20.44511791 20.44511791 53.79412171 0 74.2392396z" fill="" p-id="1525"></path></svg>