<?xml version="1.0" standalone="no"?><!DOCTYPE svg PUBLIC "-//W3C//DTD SVG 1.1//EN" "http://www.w3.org/Graphics/SVG/1.1/DTD/svg11.dtd"><svg t="1678367333634" class="icon" viewBox="0 0 1076 1024" version="1.1" xmlns="http://www.w3.org/2000/svg" p-id="2130" xmlns:xlink="http://www.w3.org/1999/xlink" width="210.15625" height="200"><path d="M695.315 355.1075l168.93 113.7525-0.735 128.25-149.0025-46.965M328.685 355.1075L159.7625 468.89l0.675 128.22L309.5 550.205" fill="#C9005B" p-id="2131"></path><path d="M660.6575 720.485c44.76-74.2725 67.2225-152.6175 70.215-263.565C735.4475 280.01 644.5175 151.415 516.005 47h-6.825c-128.5725 104.415-210.975 233.01-206.2875 409.92 2.88 110.3325 24.945 188.385 69.1425 262.2675 59.085-0.06 270.06 1.125 288.6225 1.2975z" fill="#F5B146" p-id="2132"></path><path d="M342.29 906.905l54.0075-139.5825H629.675l52.0425 139.5825-101.88-5.37L512 977l-67.95-75.465z" fill="#0092D2" p-id="2133"></path><path d="M629.675 767.3225H511.8875v209.5575L512 977l67.8375-75.465 101.88 5.37z" fill="#0085BF" p-id="2134"></path><path d="M683.6375 677.1425a443.6775 443.6775 0 0 0 14.3925-33.87c0.3375-0.9 0.7275-1.8 1.0725-2.76 9.99-27.3675 17.5875-56.3925 22.86-88.0425 4.8825-29.31 7.98-60.66 8.9175-95.5425a458.55 458.55 0 0 0-5.8725-86.07 425.085 425.085 0 0 0-8.04-39.06c-1.5825-6.12-3.465-12.105-5.3025-18.09a408.735 408.735 0 0 0-6.435-19.275 430.4175 430.4175 0 0 0-14.6175-35.6925c-1.665-3.585-3.24-7.1925-4.995-10.725a489.75 489.75 0 0 0-42.33-69.7575 362.4 362.4 0 0 0-4.515-6.0675 575.1825 575.1825 0 0 0-31.215-38.295c-1.5525-1.7475-3.045-3.555-4.62-5.28-18.9075-20.88-39.465-40.83-61.2975-59.94-2.0325-1.8075-4.125-3.585-6.18-5.3325A956.925 956.925 0 0 0 516.005 47h-4.1175v672.645c8.6925 0.0525 17.325 0.1125 25.8825 0.1125 26.805 0.165 52.2075 0.2775 73.11 0.39 5.2275 0.06 10.05 0.06 14.6175 0.12h2.7375c16.7325 0.1125 28.6725 0.165 32.4225 0.225a495.5925 495.5925 0 0 0 19.2-35.3325c1.2975-2.6625 2.5425-5.37 3.78-8.0175z" fill="#EDA02F" p-id="2135"></path></svg>