<?xml version="1.0" standalone="no"?><!DOCTYPE svg PUBLIC "-//W3C//DTD SVG 1.1//EN" "http://www.w3.org/Graphics/SVG/1.1/DTD/svg11.dtd"><svg t="1678368508213" class="icon" viewBox="0 0 1024 1024" version="1.1" xmlns="http://www.w3.org/2000/svg" p-id="4759" xmlns:xlink="http://www.w3.org/1999/xlink" width="200" height="200"><path d="M1024 622L696 1024 512 492z" fill="#FFFFFF" p-id="4760"></path><path d="M512 512m-448 0a448 448 0 1 0 896 0 448 448 0 1 0-896 0Z" fill="#FE5D64" p-id="4761"></path><path d="M272.852 430.314l173-143.438c11.105-9.207 27.191-9.207 38.296 0l173 143.438A30 30 0 0 1 668 453.41V661c0 16.569-13.431 30-30 30H292c-16.569 0-30-13.431-30-30V453.409a30 30 0 0 1 10.852-23.095z" fill="#F8B8BB" p-id="4762"></path><path d="M367.273 492.008l173-143.438c11.105-9.208 27.191-9.208 38.296 0l173 143.438a30 30 0 0 1 10.852 23.094v207.592c0 16.568-13.431 30-30 30h-346c-16.568 0-30-13.432-30-30V515.102a30 30 0 0 1 10.852-23.094z" fill="#FE5D64" p-id="4763"></path><path d="M578.57 348.54l173 143.438a30 30 0 0 1 10.851 23.095v207.591c0 16.569-13.431 30-30 30h-346c-16.568 0-30-13.431-30-30V515.073a30 30 0 0 1 10.852-23.095l173-143.438c11.105-9.207 27.191-9.207 38.296 0z m-53.786 140.124H484.42l48.38 71.878h-34.833v26.54h42.02v16.034h-42.02v26.54h42.02v52.525h37.875v-52.526h42.02v-26.54h-42.02v-16.034h42.02v-26.539h-34.556l49.761-71.878h-39.256l-35.11 55.014h-1.935l-34.003-55.014z" fill="#FFFFFF" p-id="4764"></path></svg>