<?xml version="1.0" standalone="no"?><!DOCTYPE svg PUBLIC "-//W3C//DTD SVG 1.1//EN" "http://www.w3.org/Graphics/SVG/1.1/DTD/svg11.dtd"><svg t="1678368382695" class="icon" viewBox="0 0 1024 1024" version="1.1" xmlns="http://www.w3.org/2000/svg" p-id="2547" xmlns:xlink="http://www.w3.org/1999/xlink" width="200" height="200"><path d="M117.8653313 278.9963273l316.03291122 375.49972156 312.77891437-370.30494644-628.81182559-5.19477512z" fill="#FFFFFF" p-id="2548"></path><path d="M761.65716773 265.02738027m-142.53672355 0a142.53672353 142.53672353 0 1 0 285.07344791 0 142.53672353 142.53672353 0 1 0-285.07344791 0Z" fill="#FFFFFF" p-id="2549"></path><path d="M761.65716773 119.39935861a145.26775772 145.26775772 0 0 0-38.1879874 5.22963913 145.45369995 145.45369995 0 0 1 0.25567109 280.72703623 145.51180747 145.51180747 0 1 0 37.93231631-285.95667536z" fill="#65A347" p-id="2550"></path><path d="M685.96685598 265.02738027a162.80448101 162.80448101 0 0 0 75.69031175 137.52789149 162.75799567 162.75799567 0 0 0 0-275.04416162 162.78123833 162.78123833 0 0 0-75.69031175 137.51627013z" fill="#9BD37A" p-id="2551"></path><path d="M751.00032507 269.31568445s-118.0968761-6.97285217-123.91920757 0L433.89824252 654.49604886a10.63359997 10.63359997 0 0 0 16.26998922 0l308.9787097-367.69012647a10.64522131 10.64522131 0 0 0-8.14661637-17.49023794z" fill="#FFAC1F" p-id="2552"></path><path d="M239.71592591 288.8512927l196.62281488 362.4604865L632.97317783 288.8512927c4.19533264-7.73986624 0.63917852-19.55885093-5.880439-19.55885093H245.5963649c-6.53123804 0.02324268-10.08739298 11.84222736-5.88043899 19.55885093z" fill="#FECD57" p-id="2553"></path><path d="M436.33874078 681.74827984a29.70435142 29.70435142 0 0 1-22.77798376-10.64522131L104.570426 303.41293206a29.79732212 29.79732212 0 0 1 22.81284861-48.98428775h617.89931184A29.80894345 29.80894345 0 0 1 768.08381372 303.42455341L618.46964514 481.51120334A19.16372297 19.16372297 0 1 1 589.11393634 456.85054883l137.88815543-164.08283808H145.68701196L436.33874078 638.65605243l99.04936817-117.88769037A19.16372297 19.16372297 0 1 1 564.70895291 545.46388059l-105.53412002 125.65079929a29.80894345 29.80894345 0 0 1-22.8360921 10.63359997z" fill="#231815" p-id="2554"></path><path d="M435.39740583 933.84013599a19.16372297 19.16372297 0 0 1-19.16372214-19.16372297V668.47661804a19.16372297 19.16372297 0 0 1 38.35068777 0v246.23465899A19.16372297 19.16372297 0 0 1 435.39740583 933.84013599z" fill="#231815" p-id="2555"></path><path d="M546.27738 933.84013599H322.22801242a19.16372297 19.16372297 0 0 1 0-38.3506886h224.04936758a19.16372297 19.16372297 0 0 1 0 38.3506886zM419.11579608 467.82116924a19.09399411 19.09399411 0 0 1-15.20081872-7.47257299L142.67706402 120.9798721A19.16372297 19.16372297 0 1 1 173.06707849 97.60919517l261.23791416 339.34548147a19.1521008 19.1521008 0 0 1-15.1078472 30.85487127zM761.65716773 429.83074542a164.01310923 164.01310923 0 0 1-91.65814371-27.833302A19.16372297 19.16372297 0 1 1 691.38243735 370.20123636a126.47592005 126.47592005 0 0 0 196.73902991-105.17385608 19.16372297 19.16372297 0 0 1 38.35068777-1e-8c-0.02324268 90.86788779-73.93547818 164.80336597-164.8149873 164.80336515zM616.04076822 284.20272375a19.16372297 19.16372297 0 0 1-19.16372296-19.16372213c0-90.86788779 73.91223468-164.79174381 164.79174463-164.79174463a163.71095197 163.71095197 0 0 1 130.85719574 64.60347711 19.17534429 19.17534429 0 0 1-30.43650065 23.32419159 126.45267737 126.45267737 0 0 0-226.88499462 76.85245459 19.16372297 19.16372297 0 0 1-19.16372214 19.17534347z" fill="#231815" p-id="2556"></path></svg>