<?xml version="1.0" standalone="no"?><!DOCTYPE svg PUBLIC "-//W3C//DTD SVG 1.1//EN" "http://www.w3.org/Graphics/SVG/1.1/DTD/svg11.dtd"><svg t="1678367426849" class="icon" viewBox="0 0 1024 1024" version="1.1" xmlns="http://www.w3.org/2000/svg" p-id="2130" xmlns:xlink="http://www.w3.org/1999/xlink" width="200" height="200"><path d="M662.085953 939.268762v3.284157l-7.225145-16.420783-75.5356-190.481078H443.361129L367.825529 928.10263l-7.225144 14.450289v-3.284157 4.597819c0 16.420783 13.793457 32.184734 30.21424 32.184734 16.420783 0 30.21424-12.479795 30.21424-29.557409 0 16.420783 13.793457 30.871071 30.21424 30.871072 16.420783 0 30.21424-13.136626 30.214239-30.21424 0 16.420783 13.793457 30.21424 30.21424 30.21424 16.420783 0 30.21424-13.136626 30.21424-30.21424 0 16.420783 13.793457 30.21424 30.21424 30.21424 16.420783 0 30.21424-13.793457 30.21424-30.21424 0 16.420783 13.793457 30.21424 30.21424 30.21424 16.420783 0 30.21424-17.077614 30.21424-33.498397-0.656831 0-0.656831-4.597819-0.656831-4.597819zM599.030148 735.651058H423.65619L246.96857 216.75433h529.406029z" fill="#DAEFF7" p-id="2131"></path><path d="M604.284798 754.699166c0 7.881976-6.568313 13.793457-13.793457 13.793457H434.822322c-7.881976 0-13.793457-6.568313-13.793457-13.793457v-17.734445c0-7.881976 6.568313-13.793457 13.793457-13.793457h155.669019c7.881976 0 13.793457 6.568313 13.793457 13.793457v17.734445z" fill="#E83828" p-id="2132"></path><path d="M591.805003 746.817191l84.731238-71.594612v122.827453z" fill="#C30D23" p-id="2133"></path><path d="M558.963438 757.326491L643.694676 686.388711v122.170622z" fill="#E83828" p-id="2134"></path><path d="M246.96857 216.75433l262.73252 251.566388L771.77678 216.75433z" fill="#C9CACA" p-id="2135"></path><path d="M505.760103 326.445157C476.202694 315.279025 438.106479 328.415651 421.028865 354.688903l-30.871072 47.948685 53.860167 19.048108c29.557409 10.509301 68.310455-1.970494 85.38807-28.900577 8.538807-13.136626 10.509301-27.586915 5.911481-39.409878-4.597819-11.822963-14.450289-21.675433-29.557408-26.930084z" fill="#B72C42" p-id="2136"></path><path d="M417.744708 298.858242c-28.243746 6.568313-47.948685 34.812059-44.007697 63.712637L380.962155 413.80372l51.232842-11.166132c28.243746-6.568313 47.948685-34.812059 44.007697-63.712636-1.970494-14.450289-9.85247-25.616421-20.36177-33.498397-10.509301-7.225144-24.302758-9.85247-38.096216-6.568313z" fill="#C30D23" p-id="2137"></path><path d="M350.747915 287.69211c-19.704939 19.704939-19.048108 51.889673 0.656832 71.594612L387.530468 394.098781l34.812059-36.125721c19.704939-19.704939 19.048108-51.889673-0.656831-71.594612-9.85247-9.85247-22.989096-14.450289-35.46889-14.450289-13.136626 1.313663-25.616421 5.911482-35.468891 15.763951z" fill="#B72C42" p-id="2138"></path><path d="M302.79923 339.581783c-3.284157 24.959589 14.450289 51.232842 39.409878 57.801155l44.664529 11.822963 5.25465-45.32136c3.284157-24.959589-14.450289-51.232842-39.409878-57.801154-12.479795-3.284157-23.645927-1.313663-32.841565 5.25465-9.195638 5.911482-15.763951 15.763951-17.077614 28.243746z" fill="#C30D23" p-id="2139"></path><path d="M230.547787 383.58948c15.10712 28.243746 53.203335 44.007697 84.074407 36.125722l55.83066-14.450289-28.243746-50.57601c-15.10712-28.243746-53.203335-44.007697-84.074406-36.125721-15.10712 3.940988-26.273252 13.136626-31.527903 24.959589-4.597819 11.822963-3.940988 26.273252 3.940988 40.066709z" fill="#B72C42" p-id="2140"></path><path d="M279.153303 508.387428c31.527903 4.597819 66.996793-16.420783 78.819757-45.978191l21.018601-53.203336-57.144323-7.881975c-31.527903-4.597819-66.996793 16.420783-78.819756 45.978191-5.911482 14.450289-4.597819 28.900577 1.970494 40.066709 6.568313 11.166132 19.048108 19.048108 34.155227 21.018602z" fill="#C30D23" p-id="2141"></path><path d="M390.157793 534.003849c21.675433-15.10712 28.900577-46.635022 15.763952-70.28095l-23.645927-41.380372-38.753047 27.586915c-21.675433 15.10712-28.900577 46.635022-15.763951 70.280949 6.568313 11.166132 16.420783 19.048108 28.243746 21.675433 11.166132 1.970494 23.645927 0 34.155227-7.881975z" fill="#B72C42" p-id="2142"></path><path d="M447.302117 512.328416c0.656831-23.645927-11.822963-57.801155-28.243746-75.5356l-28.900578-31.527903-1.313662 43.350866c-0.656831 23.645927 11.822963 57.801155 28.243746 75.5356 7.881976 8.538807 15.763951 11.822963 21.018602 9.85247 5.25465-2.627325 9.195638-9.85247 9.195638-21.675433zM491.966645 470.291212c-21.675433-1.313663-49.919179-16.420783-63.712636-32.841565l-24.95959-29.557408 38.753047 2.627325c21.675433 1.313663 49.919179 16.420783 63.712637 32.841565 6.568313 7.881976 8.538807 15.10712 6.568313 20.36177-2.627325 4.597819-9.85247 7.225144-20.361771 6.568313z" fill="#C30D23" p-id="2143"></path><path d="M442.704298 482.771007c-15.763951-6.568313-30.871071-25.616421-33.498397-42.037203l-4.597819-30.21424 28.243746 11.822963c15.763951 6.568313 30.871071 25.616421 33.498397 42.037204 1.313663 8.538807-0.656831 14.450289-4.59782 18.391276-4.597819 2.627325-11.166132 3.284157-19.048107 0z" fill="#B72C42" p-id="2144"></path><path d="M357.206485 427.051112a21.675433 26.930083 68.482 1 0 50.106241-19.755559 21.675433 26.930083 68.482 1 0-50.106241 19.755559Z" fill="#E29C4E" p-id="2145"></path><path d="M794.765876 419.058371c-6.568313-30.871071-38.096216-56.487492-69.624118-57.144324l-57.144324-0.656831 11.822964 55.830661c6.568313 30.871071 38.096216 56.487492 69.624118 57.144323 15.763951 0 28.900577-5.911482 36.782553-15.763951 8.538807-10.509301 11.822963-24.302758 8.538807-39.409878z" fill="#B72C42" p-id="2146"></path><path d="M771.77678 329.729314c-20.36177-21.018602-55.173829-22.332264-76.849262-3.940988l-40.06671 33.498396 36.782553 37.439384c20.36177 21.018602 55.173829 22.332264 76.849262 3.940988 11.166132-9.195638 17.077614-21.675433 17.734446-34.812059 0-13.136626-4.597819-26.273252-14.450289-36.125721z" fill="#C30D23" p-id="2147"></path><path d="M744.846697 266.673509c-26.930083-5.911482-54.516998 11.166132-60.42848 38.753046l-10.509301 49.262348 49.262348 10.509301c26.930083 5.911482 54.516998-11.166132 60.428479-38.753047 3.284157-13.793457 0-26.930083-6.568313-38.096215-7.225144-10.509301-18.391276-18.391276-32.184733-21.675433z" fill="#B72C42" p-id="2148"></path><path d="M675.87941 253.536883c-22.989096 10.509301-35.46889 39.409878-28.243746 63.712636l13.793457 44.007697 41.380372-19.704939c22.989096-10.509301 35.46889-39.409878 28.243746-63.712636-3.940988-11.822963-11.822963-21.018602-21.675433-25.616421-9.85247-3.940988-22.332264-3.940988-33.498396 1.313663z" fill="#C30D23" p-id="2149"></path><path d="M600.34381 215.440667C584.579859 243.027582 591.148172 283.751123 614.137267 305.426555l42.037204 39.409879 28.243746-49.919179c15.763951-27.586915 9.195638-68.310455-13.793458-89.985889-11.822963-10.509301-24.959589-15.10712-38.096215-13.136626-12.479795 1.970494-24.302758 9.85247-32.184734 23.645927z" fill="#B72C42" p-id="2150"></path><path d="M520.210391 323.161001c13.136626 28.900577 49.262348 47.948685 80.79025 42.694034l56.487492-10.509301-23.645926-52.546504c-13.136626-28.900577-49.262348-47.948685-80.790251-42.694034-15.763951 2.627325-26.930083 11.166132-32.841565 22.989095-5.911482 11.166132-6.568313 25.616421 0 40.06671z" fill="#C30D23" p-id="2151"></path><path d="M556.992944 430.224503c24.302758 10.509301 55.173829-0.656831 67.653624-23.645927l22.989096-42.037203-44.007697-18.391277c-24.302758-10.509301-55.173829 0.656831-67.653624 23.645927-6.568313 11.822963-7.225144 24.302758-3.284157 34.812059 3.940988 11.166132 12.479795 21.018602 24.302758 25.616421z" fill="#B72C42" p-id="2152"></path><path d="M605.598461 467.663887c21.018602-11.822963 42.694035-40.723541 49.262347-63.712636l11.822964-41.380372-37.439385 21.675433c-21.018602 11.822963-42.694035 40.723541-49.262347 63.712636-3.284157 11.166132-1.970494 19.704939 2.627325 22.989096s12.479795 2.627325 22.989096-3.284157zM664.713278 483.427838c-9.85247-19.048108-12.479795-51.232842-5.911482-71.594612l11.822963-36.782552 17.734446 34.155227c9.85247 19.048108 12.479795 51.232842 5.911481 71.594612-3.284157 9.85247-8.538807 15.763951-13.793457 15.763951-4.597819 0.656831-10.509301-3.940988-15.763951-13.136626z" fill="#C30D23" p-id="2153"></path><path d="M627.930725 447.958948c-2.627325-17.077614 5.25465-40.066709 18.391276-51.232842l22.989096-20.36177 5.25465 30.21424c2.627325 17.077614-5.25465 40.066709-18.391276 51.232842-6.568313 5.25465-12.479795 7.225144-17.734445 5.25465-5.25465-1.313663-9.195638-6.568313-10.509301-15.10712z" fill="#B72C42" p-id="2154"></path><path d="M639.144024 379.402388a26.930083 21.675433 36.591 1 0 25.841397-34.806892 26.930083 21.675433 36.591 1 0-25.841397 34.806892Z" fill="#E29C4E" p-id="2155"></path><path d="M831.548428 259.448364c-14.450289-28.243746-51.889673-44.007697-82.103912-36.125721l-55.17383 14.450288 26.273252 50.576011c14.450289 28.243746 51.889673 44.007697 82.103913 36.125721 15.10712-3.940988 26.273252-13.136626 31.527903-24.959589 5.25465-12.479795 4.597819-26.273252-2.627326-40.06671z" fill="#B72C42" p-id="2156"></path><path d="M784.913406 179.314945c-24.959589-14.450289-59.114817-6.568313-75.5356 17.077614l-29.557408 43.350866 45.32136 26.273252c24.959589 14.450289 59.114817 6.568313 75.535599-17.077613 7.881976-11.822963 10.509301-25.616421 7.881976-38.096216-2.627325-13.136626-11.166132-24.302758-23.645927-31.527903z" fill="#C30D23" p-id="2157"></path><path d="M742.876203 126.11161c-27.586915 1.313663-49.262348 25.616421-47.291854 53.203335l2.627325 49.919179 49.919179-2.627325c27.586915-1.313663 49.262348-25.616421 47.291854-53.203335-0.656831-13.793457-7.225144-26.273252-16.420783-34.812059-9.195638-8.538807-22.332264-13.136626-36.125721-12.479795z" fill="#B72C42" p-id="2158"></path><path d="M672.595253 132.023092c-19.048108 16.420783-23.645927 47.948685-9.852469 68.967286l24.959589 38.753047 34.812059-30.21424c19.048108-16.420783 23.645927-47.948685 9.85247-68.967286-6.568313-10.509301-17.077614-17.077614-27.586915-18.391277-11.166132-1.970494-22.332264 1.313663-32.184734 9.85247z" fill="#C30D23" p-id="2159"></path><path d="M589.834509 115.602309c-7.881976 30.871071 9.195638 68.310455 37.439385 83.417576l51.232841 26.273252 13.793457-55.830661c7.881976-30.871071-9.195638-68.310455-37.439384-83.417575-13.793457-7.225144-28.243746-7.881976-40.066709-2.627326-12.479795 5.911482-21.018602 17.077614-24.95959 32.184734z" fill="#B72C42" p-id="2160"></path><path d="M541.885824 241.057088c20.36177 24.302758 60.42848 32.841565 89.329057 19.048108l51.889673-25.616421-37.439384-44.007697c-20.36177-24.302758-60.42848-32.841565-89.329057-19.048108-14.450289 7.225144-22.989096 18.391276-25.616421 30.871071-2.627325 12.479795 0.656831 26.273252 11.166132 38.753047z" fill="#C30D23" p-id="2161"></path><path d="M606.255292 334.327133c26.273252 3.284157 52.546504-15.10712 59.114817-41.380372l10.509301-46.635023-47.291854-5.911481c-26.273252-3.284157-52.546504 15.10712-59.114817 41.380372-3.284157 13.136626-0.656831 24.959589 5.911482 34.812059 7.225144 9.85247 17.734445 16.420783 30.871071 17.734445z" fill="#B72C42" p-id="2162"></path><path d="M662.742784 357.316228c16.420783-17.077614 30.21424-50.57601 30.21424-74.878768v-43.350866l-30.21424 30.871071c-16.420783 17.077614-30.21424 50.57601-30.21424 74.878769 0 11.822963 3.284157 19.048108 8.538807 21.675433 5.911482 1.970494 13.793457-0.656831 21.675433-9.195639zM724.484926 356.002566c-14.450289-15.763951-26.273252-45.978191-24.959589-66.996793l1.970494-38.753047 26.930083 28.243746c14.450289 15.763951 26.273252 45.978191 24.95959 66.996793-0.656831 10.509301-3.940988 17.077614-9.195639 19.048108-5.911482 1.970494-12.479795-0.656831-19.704939-8.538807z" fill="#C30D23" p-id="2163"></path><path d="M679.163566 332.356639c-7.225144-15.10712-5.911482-40.066709 3.940988-53.860167l17.077614-25.616421 13.136626 27.586915c7.225144 15.10712 5.911482 40.066709-3.940988 53.860167-4.597819 7.225144-10.509301 10.509301-15.763951 9.852469-5.25465-0.656831-10.509301-4.597819-14.450289-11.822963z" fill="#B72C42" p-id="2164"></path><path d="M671.553226 263.245549a26.930083 21.675433 20.904 1 0 15.467729-40.497493 26.930083 21.675433 20.904 1 0-15.467729 40.497493Z" fill="#E29C4E" p-id="2165"></path><path d="M492.623477 262.732521c-19.048108-25.616421-57.801155-36.125722-86.701732-22.989096l-52.546504 22.989096 34.155227 45.978191c19.048108 25.616421 57.801155 36.125722 86.701732 22.989096 14.450289-6.568313 23.645927-17.077614 26.930084-29.557409 3.284157-13.136626 0.656831-26.930083-8.538807-39.409878z" fill="#B72C42" p-id="2166"></path><path d="M434.165491 190.481078c-26.930083-10.509301-59.114817 2.627325-71.594612 28.243746l-22.332265 47.291853 48.605517 19.048108c26.930083 10.509301 59.114817-2.627325 71.594612-28.243746 5.911482-13.136626 6.568313-26.930083 1.970494-38.753047-5.25465-12.479795-14.450289-22.332264-28.243746-27.586914z" fill="#C30D23" p-id="2167"></path><path d="M384.246312 144.502886c-26.930083 5.911482-44.664529 32.841565-38.753047 60.42848l10.509301 49.262348 49.262347-10.509301c26.930083-5.911482 44.664529-32.841565 38.753047-60.42848-2.627325-13.793457-11.166132-24.302758-21.675433-31.527902-11.166132-7.225144-24.302758-9.85247-38.096215-7.225145z" fill="#B72C42" p-id="2168"></path><path d="M315.935856 160.923669c-16.420783 19.704939-16.420783 50.57601 0.656832 69.624118l30.21424 34.155228 29.557408-34.812059c16.420783-19.704939 16.420783-50.57601-0.656831-69.624118-8.538807-9.195638-19.048108-13.793457-30.21424-13.793458-10.509301 0-21.675433 5.25465-29.557409 14.450289z" fill="#C30D23" p-id="2169"></path><path d="M231.204618 157.639513c-2.627325 31.527903 19.704939 66.339962 49.919179 76.192431l54.516998 18.391276 5.254651-57.144323c2.627325-31.527903-19.704939-66.339962-49.919179-76.192431-15.10712-5.25465-28.900577-3.284157-40.06671 3.940987-10.509301 7.225144-18.391276 19.048108-19.704939 34.81206z" fill="#B72C42" p-id="2170"></path><path d="M202.960872 289.005773c23.645927 21.018602 65.026299 23.645927 91.299551 5.25465l47.291854-32.841565-43.350866-38.096215c-23.645927-21.018602-65.026299-23.645927-91.299551-5.254651-13.136626 9.195638-19.704939 21.675433-21.018602 34.155228 0 13.136626 5.25465 26.273252 17.077614 36.782553z" fill="#C30D23" p-id="2171"></path><path d="M281.123797 371.109686c26.273252-0.656831 49.919179-22.989096 51.889673-49.262348l3.284157-47.948685-47.948685 1.970494c-26.273252 0.656831-49.919179 22.989096-51.889673 49.262348-0.656831 13.136626 3.284157 24.959589 11.166132 33.498396 8.538807 7.881976 20.36177 13.136626 33.498396 12.479795z" fill="#B72C42" p-id="2172"></path><path d="M340.895446 385.559974c13.793457-19.704939 22.332264-54.516998 18.391276-78.162925l-6.568313-42.694034-24.959589 34.812059c-13.793457 19.704939-22.332264 54.516998-18.391277 78.162925 1.970494 11.822963 6.568313 18.391276 11.822964 19.704939 5.911482 1.313663 12.479795-2.627325 19.704939-11.822964zM401.323926 375.050674c-17.077614-13.136626-32.841565-41.380372-34.812059-62.398974l-3.940988-38.096216 30.871071 23.645927c17.077614 13.136626 32.841565 41.380372 34.812059 62.398974 1.313663 10.509301-1.313663 17.734445-5.911482 20.36177-5.911482 1.970494-12.479795 0.656831-21.018601-5.911481z" fill="#C30D23" p-id="2173"></path><path d="M352.718409 357.97306c-9.85247-14.450289-11.822963-38.096216-4.597819-53.860167l13.136626-28.243746 17.077614 25.616421c9.85247 14.450289 11.822963 38.096216 4.597819 53.860166-3.284157 7.881976-8.538807 11.822963-13.793457 12.479795-5.911482 0-11.166132-3.284157-16.420783-9.852469z" fill="#B72C42" p-id="2174"></path><path d="M335.081659 290.74513a26.930083 21.675433 12.099 1 0 9.086406-42.387909 26.930083 21.675433 12.099 1 0-9.086406 42.387909Z" fill="#E29C4E" p-id="2175"></path><path d="M622.019243 192.451572c-19.048108-25.616421-57.801155-36.125722-86.701732-22.989096l-52.546504 22.989096 34.155228 45.978191c19.048108 25.616421 57.801155 36.125722 86.701732 22.989095 14.450289-6.568313 23.645927-17.077614 26.930083-29.557408 3.940988-12.479795 1.313663-26.930083-8.538807-39.409878z" fill="#B72C42" p-id="2176"></path><path d="M564.218089 120.85696c-26.930083-10.509301-59.114817 2.627325-71.594612 28.243746l-22.332265 47.291853 48.605517 19.048108c26.930083 10.509301 59.114817-2.627325 71.594612-28.243746 5.911482-13.136626 6.568313-26.930083 1.970494-38.753047-5.25465-12.479795-15.10712-22.332264-28.243746-27.586914z" fill="#C30D23" p-id="2177"></path><path d="M514.29891 74.878768c-26.930083 5.911482-44.664529 32.841565-38.753047 60.42848L486.055164 183.912765l49.262347-10.509301c26.930083-5.911482 44.664529-32.841565 38.753047-60.42848-2.627325-13.793457-11.166132-24.302758-21.675433-31.527903-11.166132-6.568313-24.959589-9.195638-38.096215-6.568313z" fill="#B72C42" p-id="2178"></path><path d="M445.331623 91.299551c-16.420783 19.704939-16.420783 50.57601 0.656831 69.624118l30.21424 34.155228 29.557409-34.812059c16.420783-19.704939 16.420783-50.57601-0.656832-69.624118-8.538807-9.195638-19.048108-13.793457-30.21424-13.793458-10.509301 0-21.018602 4.597819-29.557408 14.450289z" fill="#C30D23" p-id="2179"></path><path d="M361.257216 88.015394c-2.627325 31.527903 19.704939 66.339962 49.919179 76.192432l54.516998 18.391276 5.254651-57.144323c2.627325-31.527903-19.704939-66.339962-49.919179-76.192431-15.763951-5.25465-29.557409-3.284157-40.723541 3.284156-10.509301 7.225144-17.734445 19.704939-19.048108 35.46889z" fill="#B72C42" p-id="2180"></path><path d="M332.356639 218.724824c23.645927 21.018602 65.026299 23.645927 91.299551 5.25465l47.291854-32.841565-43.350866-38.096216c-23.645927-21.018602-65.026299-23.645927-91.299551-5.25465-13.136626 9.195638-19.704939 21.675433-21.018602 34.155228 0 13.136626 5.25465 26.273252 17.077614 36.782553z" fill="#C30D23" p-id="2181"></path><path d="M410.519564 301.485568c26.273252-0.656831 49.919179-22.989096 51.889673-49.262348l3.284156-47.948685-47.948685 1.313663c-26.273252 0.656831-49.919179 22.989096-51.889673 49.262347-0.656831 13.136626 3.284157 24.959589 11.166132 33.498397 9.195638 8.538807 20.36177 13.793457 33.498397 13.136626z" fill="#B72C42" p-id="2182"></path><path d="M470.291212 315.279025c13.793457-19.704939 22.332264-54.516998 18.391277-78.162925l-6.568313-42.694035-24.95959 35.468891c-13.793457 19.704939-22.332264 54.516998-18.391276 78.162925 1.970494 11.822963 6.568313 18.391276 11.822963 19.704939 5.911482 1.313663 13.136626-2.627325 19.704939-12.479795zM530.719692 304.769724c-17.077614-13.136626-32.841565-41.380372-34.812059-62.398974l-3.940988-38.096215 30.871071 23.645927c17.077614 13.136626 32.841565 41.380372 34.812059 62.398974 1.313663 10.509301-1.313663 17.734445-5.911481 20.36177-5.25465 2.627325-12.479795 0.656831-21.018602-5.911482z" fill="#C30D23" p-id="2183"></path><path d="M482.771007 288.348942c-9.85247-14.450289-11.822963-38.096216-4.597819-53.860167l12.479795-28.243746 17.077614 25.616421c9.85247 14.450289 11.822963 38.096216 4.597819 53.860166-3.284157 7.881976-8.538807 11.822963-13.793458 12.479795-5.25465 0-11.166132-3.284157-15.763951-9.852469z" fill="#B72C42" p-id="2184"></path><path d="M464.173758 221.113176a26.930083 21.675433 12.099 1 0 9.086406-42.387909 26.930083 21.675433 12.099 1 0-9.086406 42.387909Z" fill="#E29C4E" p-id="2185"></path><path d="M634.499038 538.601668c0-31.527903-24.959589-63.055805-55.830661-70.28095l-55.173829-13.136626V512.328416c0 31.527903 24.959589 63.055805 55.83066 70.280949 15.10712 3.284157 28.900577 0.656831 39.409879-7.225144 9.195638-8.538807 15.763951-21.018602 15.763951-36.782553z" fill="#B72C42" p-id="2186"></path><path d="M630.55805 445.988454c-15.10712-24.302758-49.262348-33.498396-74.878768-19.704939l-45.978192 24.302758 27.586915 44.007697c15.10712 24.302758 49.262348 33.498396 74.878769 19.70494 12.479795-6.568313 21.018602-17.734445 24.302758-30.21424 3.284157-11.822963 1.313663-25.616421-5.911482-38.096216z" fill="#C30D23" p-id="2187"></path><path d="M618.078255 379.648493c-25.616421-11.822963-55.830661 0-66.996793 24.959589l-21.018601 45.32136 45.32136 21.018602c25.616421 11.822963 55.830661 0 66.996792-24.95959 5.911482-12.479795 5.911482-26.273252 1.313663-38.096215-3.940988-12.479795-13.136626-22.989096-25.616421-28.243746z" fill="#B72C42" p-id="2188"></path><path d="M553.051956 351.404747c-24.959589 5.911482-43.350866 30.871071-41.380372 56.487492l3.940988 45.978191 44.664529-10.509301c24.959589-5.911482 43.350866-30.871071 41.380372-56.487492-1.313663-12.479795-7.225144-22.989096-15.763952-29.557409-9.195638-5.911482-20.36177-8.538807-32.841565-5.911481z" fill="#C30D23" p-id="2189"></path><path d="M487.368826 298.858242c-21.018602 23.645927-23.645927 65.026299-5.911482 91.299551l32.841566 47.291854 38.096215-42.694034c21.018602-23.645927 23.645927-65.026299 5.911482-91.299551-9.195638-13.136626-21.675433-20.36177-34.155228-21.018602-13.136626-1.313663-26.273252 4.597819-36.782553 16.420782z" fill="#B72C42" p-id="2190"></path><path d="M386.216806 386.873637c6.568313 30.871071 38.096216 57.801155 70.280949 58.457986l57.144323 1.970494-11.822963-56.487492c-6.568313-30.871071-38.096216-57.801155-70.28095-58.457986-15.763951-0.656831-28.900577 5.25465-37.439384 15.10712-7.881976 9.85247-11.166132 23.645927-7.881975 39.409878z" fill="#C30D23" p-id="2191"></path><path d="M399.353432 499.848621c21.675433 15.10712 53.860167 11.166132 70.93778-8.538807l31.527903-36.125722-39.409878-27.586914c-21.675433-15.10712-53.860167-11.166132-70.937781 8.538807-8.538807 9.85247-11.822963 22.332264-10.509301 33.498396 1.313663 11.822963 7.881976 22.332264 18.391277 30.21424z" fill="#B72C42" p-id="2192"></path><path d="M438.76331 546.483643c22.989096-7.225144 50.57601-30.871071 61.742142-51.889673l20.361771-38.096215-40.723541 13.136626c-22.989096 7.225144-50.57601 30.871071-61.742143 51.889673-5.25465 10.509301-5.911482 18.391276-1.970493 22.989095 3.284157 4.597819 11.166132 5.25465 22.332264 1.970494zM493.937139 574.070558c-5.911482-20.36177-1.970494-52.546504 9.195638-70.937781l19.704939-33.498396 10.509301 37.439384c5.911482 20.36177 1.970494 52.546504-9.195638 70.937781-5.25465 9.195638-11.166132 13.136626-17.077614 12.479795-5.911482-0.656831-10.509301-5.911482-13.136626-16.420783z" fill="#C30D23" p-id="2193"></path><path d="M465.036562 532.033355c0.656831-17.077614 13.793457-38.096216 28.243746-45.978191l26.930083-15.10712-1.313662 30.871071c-0.656831 17.077614-13.793457 38.096216-28.243746 45.978191-7.225144 3.940988-13.793457 4.597819-19.048108 1.313663-3.940988-2.627325-6.568313-8.538807-6.568313-17.077614z" fill="#B72C42" p-id="2194"></path><path d="M490.939793 467.331453a26.930083 21.675433 48.747 1 0 32.59141-28.584918 26.930083 21.675433 48.747 1 0-32.59141 28.584918Z" fill="#E29C4E" p-id="2195"></path></svg>