<?xml version="1.0" standalone="no"?><!DOCTYPE svg PUBLIC "-//W3C//DTD SVG 1.1//EN" "http://www.w3.org/Graphics/SVG/1.1/DTD/svg11.dtd"><svg t="1678368474464" class="icon" viewBox="0 0 1024 1024" version="1.1" xmlns="http://www.w3.org/2000/svg" p-id="4142" xmlns:xlink="http://www.w3.org/1999/xlink" width="200" height="200"><path d="M780.23338667 826.02666667c-46.80362667 0-90.00277333-21.59957333-115.23413334-57.61706667l-21.57226666-28.78122667c-10.81344-14.41792-7.20896-39.59466667 7.18165333-50.40810666 14.41792-10.81344 39.59466667-7.20896 50.40810667 7.18165333l21.59957333 28.80853333c25.20405333 36.01749333 86.4256 39.59466667 115.23413333 3.60448 14.39061333-18.0224 21.57226667-36.01749333 17.99509334-57.61706666l-36.01749334-277.21728c-10.78613333-79.21664-79.18933333-133.22922667-158.40597333-126.02026667l-126.02026667 14.39061333h-46.80362666l-126.02026667-14.39061333c-79.18933333-7.20896-147.61984 46.80362667-158.40597333 126.02026667L168.15445333 671.19786667a66.40981333 66.40981333 0 0 0 18.0224 57.61706666c28.78122667 32.41301333 86.39829333 32.41301333 115.20682667-3.60448l43.19914667-54.01258666c28.80853333-35.99018667 72.00768-57.61706667 115.23413333-57.61706667h86.39829333c21.57226667 0 35.99018667 14.41792 35.99018667 36.0448 0 21.57226667-14.39061333 35.99018667-35.99018667 35.99018667h-90.03008c-21.57226667 0-46.80362667 10.78613333-57.61706666 28.80853333l-43.19914667 53.98528c-28.78122667 36.01749333-72.00768 57.61706667-115.20682667 57.61706667-43.19914667 0-82.82112-18.0224-108.02517333-50.40810667-28.78122667-32.41301333-39.59466667-72.00768-35.99018667-115.23413333l35.99018667-277.21728c10.81344-111.60234667 118.83861333-198.02794667 234.01813333-183.61002667l126.04757334 14.39061333h32.38570666l129.62474667-14.39061333c115.23413333-14.41792 223.232 72.00768 237.64992 187.21450667l35.99018667 277.24458666c3.60448 43.19914667-7.20896 82.79381333-35.99018667 115.20682667a157.96906667 157.96906667 0 0 1-111.62965333 46.80362667z m-223.232-388.84693334a34.816 34.816 0 0 0 0 50.40810667 34.816 34.816 0 0 0 50.40810666 0 34.816 34.816 0 0 0 0-50.40810667 34.816 34.816 0 0 0-50.40810666 0z m75.63946666-68.4032a34.816 34.816 0 0 0 0 50.40810667 34.816 34.816 0 0 0 50.3808 0 34.816 34.816 0 0 0 0-50.40810667 34.816 34.816 0 0 0-50.40810666 0z m68.37589334 68.4032a34.816 34.816 0 0 0 0 50.40810667 34.816 34.816 0 0 0 50.40810666 0 34.816 34.816 0 0 0 0-50.40810667 34.816 34.816 0 0 0-50.40810666 0z m-68.4032 75.61216a34.816 34.816 0 0 0 0 50.40810667 34.816 34.816 0 0 0 50.40810666 0 34.816 34.816 0 0 0 0-50.40810667 34.816 34.816 0 0 0-50.40810666 0z" fill="#FB553C" p-id="4143"></path><path d="M371.9168 366.67392a99.31434667 99.31434667 0 1 0 0 198.62869333 99.31434667 99.31434667 0 0 0 0-198.62869333z m0 54.61333333a44.70101333 44.70101333 0 1 1 0 89.40202667 44.70101333 44.70101333 0 0 1 0-89.40202667z" fill="#FB553C" p-id="4144"></path></svg>