<?xml version="1.0" standalone="no"?><!DOCTYPE svg PUBLIC "-//W3C//DTD SVG 1.1//EN" "http://www.w3.org/Graphics/SVG/1.1/DTD/svg11.dtd"><svg t="1678368442401" class="icon" viewBox="0 0 1024 1024" version="1.1" xmlns="http://www.w3.org/2000/svg" p-id="3678" xmlns:xlink="http://www.w3.org/1999/xlink" width="200" height="200"><path d="M512.00502151 151.45492905L131.99762658 537.04594198v33.14017976h743.48486952v-64.3522043l-142.52285771-127.09760957z" fill="#F8D02D" p-id="3679"></path><path d="M230.81561782 915.82815354a29.00267879 29.00267879 0 0 1-28.98259403-28.96250798V592.37999916H141.6384065c-3.03282874 0-6.02548665-0.48203946-8.93780681-1.40594625-6.28659113-2.04866507-22.37464285-9.64077993-35.40977978-35.83156495-12.51292796-25.10619628-6.38701622-48.24406782 2.67129914-60.45572177 0.84356774-1.12475699 1.76747583-2.20934575 2.77172425-3.21359288L489.91156791 104.2954487c5.42293862-5.44302338 12.79411851-8.51602163 20.48665717-8.49593687 7.73270818 0 14.98337821 3.01274397 20.4665711 8.45576734l110.28650128 109.8647174c11.3279154 11.3279154 16.93161947 35.24910041 5.66395833 46.59710056-5.42293862 5.46310814-18.41790604 14.11972571-26.11044468 14.09964094a28.8018286 28.8018286 0 0 1-20.4665724-8.43568259l-89.77975936-89.47848534L153.54878645 544.0957618 230.81561782 534.39472761c16.00771138 0.02008476 28.96250798 12.99496741 28.98259275 28.98259403v294.48564512h501.98334118V563.37732164a29.00267879 29.00267879 0 0 1 28.98259404-28.98259403h55.1131222l-127.98134814-135.89482174a29.14327342 29.14327342 0 0 1-8.53610639-20.52682669V259.59234015c0-15.98762662 13.57743067-26.57239808 29.52488648-27.39588237 24.8852626-1.26535291 39.62762108 11.40825573 39.62762107 27.39588237v106.34984922l137.98365764 137.46144866c1.68713678 1.68713678 3.17342335 3.57512245 4.39860545 5.62378882 2.65121438 4.4186902 15.24448269 27.55656175 4.15758699 51.97986966-11.16723602 24.60407335-37.01657621 30.10735103-42.0980713 30.95091878-1.60679644 0.26110449-3.21359287 0.40169911-4.82038932 0.4016991h-58.38697194v294.48564641c0 16.00771138-12.95479789 28.96250798-28.96250798 28.98259274H230.81561782z" fill="#444444" p-id="3680"></path><path d="M586.68089279 905.64508118a29.00267879 29.00267879 0 0 1-29.0026788-28.98259403v-192.01219367h-95.62448183v192.01219367a29.06293309 29.06293309 0 0 1-28.98259404 28.52063935 28.9022537 28.9022537 0 0 1-28.98259273-28.60097969v-193.79975426a56.17762619 56.17762619 0 0 1 56.09728584-56.09728584h99.34019892a56.17762619 56.17762619 0 0 1 56.11737192 56.09728584v193.8800946c0 15.98762662-12.97488266 28.96250798-28.96250928 28.98259403" fill="#444444" p-id="3681"></path></svg>