<?xml version="1.0" standalone="no"?><!DOCTYPE svg PUBLIC "-//W3C//DTD SVG 1.1//EN" "http://www.w3.org/Graphics/SVG/1.1/DTD/svg11.dtd"><svg t="1678368399926" class="icon" viewBox="0 0 1024 1024" version="1.1" xmlns="http://www.w3.org/2000/svg" p-id="2867" xmlns:xlink="http://www.w3.org/1999/xlink" width="200" height="200"><path d="M689.9 949.4c0 0.5-0.4 1-1 1H333.4c-0.5 0-1-0.5-1-1V646.9c0-0.5 0.5-1 1-1h355.5c0.6 0 1 0.5 1 1v302.5z" fill="#FFFFFF" p-id="2868"></path><path d="M688.9 951.4H333.4c-1.1 0-2-0.9-2-2V646.9c0-1.1 0.9-2 2-2h355.5c1.1 0 2 0.9 2 2v302.5c0 1.1-0.9 2-2 2zM333.4 646.9v302.5h355.5V646.9H333.4z" fill="#D21919" p-id="2869"></path><path d="M649.2 644.9c0 0.6-0.5 1-1 1H374.1c-0.6 0-1-0.4-1-1V362.2c0-0.6 0.4-1 1-1h274.1c0.5 0 1 0.4 1 1v282.7z" fill="#FFFFFF" p-id="2870"></path><path d="M648.2 646.9H374.1c-1.1 0-2-0.9-2-2V362.2c0-1.1 0.9-2 2-2h274.1c1.1 0 2 0.9 2 2v282.7c0 1.1-0.9 2-2 2zM374.1 362.2v282.7h274.1V362.2H374.1z" fill="#D21919" p-id="2871"></path><path d="M552.6 644.9c0 0.6-0.5 1-1 1H364.2c-0.6 0-1-0.4-1-1V362.2c0-0.6 0.4-1 1-1h187.4c0.5 0 1 0.4 1 1v282.7z" fill="#FC7A7A" p-id="2872"></path><path d="M337.4 655.8h256.3v284.7H337.4z" fill="#EF4141" p-id="2873"></path><path d="M688.9 960.4H333.4c-6.1 0-11-4.9-11-11V646.9c0-6.1 4.9-11 11-11h355.5c6.1 0 11 4.9 11 11v302.5c0 6.1-5 11-11 11z m-346.5-20h337.5V655.9H342.4v284.5z" fill="#D21919" p-id="2874"></path><path d="M428.6 343.2V221.8c0-3.5 0.5-7 1.9-10 5.7-12.7 27.6-43.9 109.5-111.3 0 0 15.4-12.2 30.1-21.7 10.7-6.9 23.7 2.5 23.7 17.1v253.8c0 11-7.6 10-16.7 9.5l-133 0.5c-8.7-0.5-15.5-6.2-15.5-16.5z" fill="#EF0303" p-id="2875"></path><path d="M443.8 369.6h-0.3c-14.7-0.7-25-11.6-25-26.5V221.7c0-5.3 0.9-10 2.8-14.2 7.3-16.3 32.8-49.5 112.2-114.9l0.2-0.1c0.6-0.5 16-12.6 30.9-22.2 7.5-4.8 16.6-5.2 24.4-1 9.1 4.9 14.7 15.1 14.7 26.4v253.8c0 6.3-1.9 11.3-5.5 14.8-5.8 5.5-13.5 5.1-20.3 4.8l-1.1-0.1-133 0.6z m102.4-261.4c-83.5 68.7-102.4 98.2-106.6 107.6-0.7 1.5-1 3.6-1 5.9v121.4c0 2.6 0.6 6.1 5.7 6.5l132.9-0.5 1.7 0.1c1.5 0.1 3.4 0.2 4.8 0.2V95.8c0-4.8-2.3-7.8-4.3-8.9-1.4-0.7-2.6-0.7-4 0.2-13.5 8.8-28 20.2-29.2 21.1z" fill="#D21919" p-id="2876"></path><path d="M648.2 655.9H374.1c-6.1 0-11-4.9-11-11V362.2c0-6.1 4.9-11 11-11h274.1c6.1 0 11 4.9 11 11v282.7c0 6.1-4.9 11-11 11z m-265.1-20h256.1V371.2H383.1v264.7z" fill="#D21919" p-id="2877"></path></svg>