<?xml version="1.0" standalone="no"?><!DOCTYPE svg PUBLIC "-//W3C//DTD SVG 1.1//EN" "http://www.w3.org/Graphics/SVG/1.1/DTD/svg11.dtd"><svg t="1678368492607" class="icon" viewBox="0 0 1024 1024" version="1.1" xmlns="http://www.w3.org/2000/svg" p-id="4449" xmlns:xlink="http://www.w3.org/1999/xlink" width="200" height="200"><path d="M147.91111111 773.91644445V250.08355555c0-95.00444445 77.02755555-171.91822222 171.91822222-171.91822222h384.34133334c95.00444445 0 171.91822222 77.02755555 171.91822222 171.91822222v523.71911112c0 95.00444445-77.02755555 171.91822222-171.91822222 171.91822222H319.82933333c-94.89066667 0.11377778-171.91822222-76.91377778-171.91822222-171.80444444z" fill="#E12D38" p-id="4450"></path><path d="M195.92533333 767.88622222V256.11377778c0-69.85955555 56.54755555-126.40711111 126.40711112-126.40711111h379.22133333c69.85955555 0 126.40711111 56.54755555 126.40711111 126.40711111V768c0 69.85955555-56.54755555 126.40711111-126.40711111 126.40711111H322.44622222c-69.85955555-0.11377778-126.52088889-56.66133333-126.52088889-126.52088889z" fill="#FED338" p-id="4451"></path><path d="M699.05066667 842.86577778H324.94933333c-44.48711111 0-80.896-36.40888889-80.896-80.896V262.03022222c0-44.48711111 36.40888889-80.896 80.896-80.896h374.10133334c44.48711111 0 80.896 36.40888889 80.896 80.896v499.93955556c0 44.48711111-36.40888889 80.896-80.896 80.896z" fill="#FFFFFF" p-id="4452"></path><path d="M669.46844445 401.408c-14.336 12.85688889-31.85777778 26.51022222-46.87644445 36.864 17.18044445 9.32977778 36.18133333 17.18044445 56.54755555 22.528-6.48533333 6.03022222-15.36 18.20444445-20.02488888 26.16888889-16.49777778-5.00622222-32.19911111-11.83288889-46.53511112-20.02488889V507.44888889c0 8.192 1.024 10.69511111 6.03022223 10.69511111h22.18666667c5.00622222 0 13.65333333-0.34133333 17.52177777-1.47911111 0.34133333 6.82666667 1.024 16.49777778 2.16177778 23.32444444-3.98222222 1.47911111-11.83288889 1.82044445-19.00088889 1.82044445h-26.16888889c-25.03111111 0-30.03733333-10.01244445-30.03733333-34.70222223v-28.33066666h-41.87022222v1.47911111c0 24.00711111-7.168 52.67911111-38.68444445 71.22488889-3.98222222-5.34755555-13.65333333-14.67733333-20.02488889-19.34222222v5.68888888h-73.04533333c-1.47911111 10.35377778-2.84444445 21.16266667-4.66488889 30.83377778h78.39288889s-0.34133333 8.64711111-1.024 12.85688889c-4.32355555 49.03822222-8.192 70.54222222-17.18044445 79.872-6.82666667 6.82666667-14.336 8.98844445-25.37244444 9.67111111-9.67111111 1.024-27.87555555 0.68266667-47.21777778 0-0.68266667-8.64711111-4.66488889-20.36622222-10.01244444-28.33066666 19.00088889 1.82044445 37.54666667 2.16177778 44.71466666 2.16177778 6.03022222 0 9.67111111-0.34133333 12.8568889-3.18577778 4.66488889-4.32355555 8.192-17.86311111 11.15022222-48.01422222h-78.39288889c4.66488889-21.84533333 10.01244445-54.72711111 12.85688889-81.23733334H455.11111111V480.14222222h-55.52355556v-5.00622222c-12.17422222 6.03022222-24.68977778 11.49155555-36.864 15.70133333-3.98222222-7.168-11.83288889-19.00088889-17.8631111-24.68977778 22.528-6.82666667 45.51111111-17.52177778 65.536-30.83377777-10.01244445-8.98844445-24.68977778-19.34222222-36.864-26.85155556l19.00088888-17.86311111c13.19822222 7.50933333 29.696 18.65955555 40.50488889 27.53422222 11.15022222-9.32977778 20.36622222-20.02488889 28.33066667-31.17511111h-77.36888889v-26.51022222h94.89066667l5.34755555-1.024 21.16266667 10.01244445c-15.36 35.04355555-40.84622222 63.03288889-70.88355556 84.53688888h50.51733334v75.54844445c26.51022222-14.67733333 30.37866667-33.33688889 30.37866666-50.06222223v-26.85155555h74.41066667c-34.36088889-24.68977778-60.87111111-57.23022222-78.73422222-96.71111111l26.51022222-7.85066667c6.48533333 13.65333333 14.336 26.51022222 23.66577778 38.68444445 14.336-11.15022222 30.83377778-26.16888889 40.50488889-37.54666667L625.77777778 366.36444445c-15.01866667 13.99466667-32.88177778 27.87555555-48.01422223 38.3431111 7.168 7.168 14.67733333 13.19822222 22.86933334 19.34222223 15.36-11.49155555 33.67822222-27.87555555 44.71466666-39.36711111l24.1208889 16.72533333z m-26.05511112 159.97155555c-9.67111111 26.51022222-24.34844445 47.55911111-43.008 64.39822223 17.52177778 10.35377778 33.67822222 20.36622222 45.056 28.33066667l-17.18044444 21.84533333c-12.51555555-9.32977778-30.37866667-20.70755555-50.51733334-32.88177778-23.32444445 15.01866667-50.51733333 25.37244445-80.55466666 32.54044445-2.84444445-7.50933333-9.32977778-18.20444445-14.67733334-24.34844445 25.37244445-4.66488889 48.69688889-12.85688889 69.06311112-24.00711111-18.20444445-11.15022222-36.864-21.84533333-53.36177778-31.17511111l15.01866666-17.18044445h-12.51555555V555.23555555h118.89777778l5.00622222-0.68266666 18.77333333 6.82666666z m-126.40711111 17.52177778c17.86311111 9.67111111 38.68444445 20.70755555 58.70933333 32.54044445 11.15022222-9.67111111 20.70755555-20.36622222 28.672-32.54044445h-87.38133333z" fill="#E12D38" p-id="4453"></path></svg>