<?xml version="1.0" standalone="no"?><!DOCTYPE svg PUBLIC "-//W3C//DTD SVG 1.1//EN" "http://www.w3.org/Graphics/SVG/1.1/DTD/svg11.dtd"><svg t="1678368414641" class="icon" viewBox="0 0 1749 1024" version="1.1" xmlns="http://www.w3.org/2000/svg" p-id="3187" xmlns:xlink="http://www.w3.org/1999/xlink" width="341.6015625" height="200"><path d="M969.32495207 105.76553801m-55.95559734 0a55.95559734 55.95559734 0 1 0 111.91119599 0 55.95559734 55.95559734 0 1 0-111.91119599 0Z" fill="#CCE187" p-id="3188"></path><path d="M348.09064438 230.71184505l59.61178769 92.83542372-128.76146149 187.89635422-104.91674615 19.71163134v176.45089085l85.84097388 42.9204876 195.52666313 221.75584933 21.46024315 42.9204876v123.35665804h187.89635551l51.82251336-75.66722868 196.63941714-7.15341395v69.14967381l170.41022964 13.67096882 203.95179523-390.41746716s79.00548948-309.98129541-121.44908213-414.89804026c-27.34194025-14.30682919-61.20143536-27.34194025-99.51194402-39.10533315-30.52123563-9.37892071-74.87240549 47.68943067-109.68568792 39.74119221s-59.92971722-80.9130667-96.65057818-87.589587c-220.00723753-39.26429727-454.63923249-54.52491507-454.63923379-54.52491507l-57.54524505 38.94636773z" fill="#CCE187" p-id="3189"></path><path d="M1166.12333334 296.36429394c10.17374521 7.78927303 20.188525 15.73751147 29.72641243 24.16264487 82.97960805 72.80586285 134.00729822 172.31780687 143.70414847 280.57281252 6.04066122 66.92416704-4.76894307 134.80212271-30.99812928 196.1625222-39.90015634 93.31231868-91.24577604 183.76327022-140.84278393 271.35285722-12.55821609 22.09610223-24.95746806 44.03324033-37.19775461 65.97037843-13.82993425 24.79850395-40.53601541 40.21808588-69.46760336 40.21808588h-114.77256182c-43.55634667 0-79.00548948-34.4953542-79.00548949-76.93894684v-9.378922c0-1.74861181-1.58964769-3.17929538-3.33825949-3.02032996-44.51013529 5.24583674-90.1330233 6.04066122-134.16626363 2.70240042-1.27171815-0.15896412-2.38447089 0.63585907-2.86136585 1.7486131l-17.96301824 39.26429726c-12.87614563 27.81883391-41.17187449 45.62288801-72.17000376 45.62288802h-115.24945549c-43.55634667 0-79.00548948-34.4953542-79.00548948-76.93894684v-99.19401447c0-0.95378861-0.47689366-1.90757723-1.43068357-2.5434363-87.74855113-54.52491507-154.51375276-129.7152501-190.43979052-214.44346997-0.31792954-0.63585907-0.79482319-1.11275274-1.43068226-1.43068358L179.74695611 745.59872429c-24.48057441-12.24028655-39.58222681-36.40293142-39.5822268-63.1090113v-135.75591132c0-39.10533314 32.42881284-70.7393215 72.4879333-70.7393215l38.94636773 0.15896542c1.11275274 0 2.22550677-0.63585907 2.70240171-1.74861311 23.52678578-52.1404429 58.81696319-100.94262629 103.80399214-142.90932526 0.95378861-0.95378861 1.27171815-2.38447089 0.63585907-3.49722493l-38.94636773-76.14412363c-10.49167475-20.66541995-10.01477979-45.14599437 1.11275404-65.33451806 11.60442748-20.82438406 32.74674239-34.65431962 56.90938596-36.72086225 19.07577227-1.74861181 38.31050865-2.70240042 57.54524503-2.70240044 76.6210173 0 143.86311389 14.14786378 199.81871252 42.28462853 0.63585907 0.31792954 1.27171815 0.31792954 1.90757723 0.31792954 21.61920857-4.60997765 43.55634667-8.10720257 65.97037844-10.49167475 1.74861181-0.15896412 3.17929538 1.11275274 3.33825949 2.70240042l3.65619033 49.27907834c0.63585907 8.74306164-5.72273168 16.53233597-14.46579461 17.6450887-19.23473639 2.5434363-37.9925791 6.04066122-56.59145642 10.33270934l-11.7633929 2.70240171c-0.79482319 0.15896412-1.43068227 0-2.06654263-0.31792953l-10.49167346-5.88169709c-60.08868133-33.38260146-130.66903872-40.3770513-179.47122211-40.37705001-17.00922962 0-34.17742466 0.79482319-51.18665558 2.38447088-2.06654135 0.15896412-3.17929538 2.5434363-2.22550676 4.29204941l61.99625986 122.72079899c0.63585907 1.27171815 0.31792954 2.70240042-0.7948245 3.65619032l-19.07577226 15.89647689c-53.73009059 44.6690994-93.78921234 99.3529786-115.72634915 158.01097767l-7.63030889 20.34749042c-0.47689366 1.11275274-1.58964769 1.90757723-2.86136585 1.90757721l-85.0461507-0.31792953c-2.86136583 0-4.45101353 1.74861181-4.45101352 2.5434363v135.75591132c0 0.63585907 0.79482319 1.58964769 1.90757722 2.06654136l92.99438915 46.25874708c0.63585907 0.31792954 1.27171815 0.95378861 1.43068227 1.5896477l4.29204941 11.44546336c30.99812929 81.38996036 96.49161406 154.03685909 184.55809341 204.11076063l15.73751276 8.90202706c0.95378861 0.47689366 1.43068227 1.58964769 1.43068228 2.5434363v138.29934633c0 4.76894307 4.92790719 8.74306164 10.80960428 8.74306294h115.24945549c4.45101353 0 8.58409751-2.38447089 10.1737452-5.8816971l38.15154454-83.77443125c0.47689366-1.11275274 1.74861181-1.90757723 3.02032996-1.74861311l22.57299717 2.70240172c59.77075181 7.15341395 124.15148254 5.08687261 184.39912931-5.88169709l36.72086096-6.67652029c1.90757723-0.31792954 3.49722491 1.11275274 3.49722491 2.86136583v89.81509376c0 4.76894307 4.92790719 8.74306164 10.80960428 8.74306165h114.77256183c4.29204811 0 8.10720257-2.06654135 9.85581567-5.24583674 12.24028655-22.09610223 24.79850395-44.19220575 37.35672004-66.28830797 48.64321927-85.84097389 99.03504907-174.54331363 137.34555901-264.35840738 22.25506765-51.18665428 31.31605882-107.778112 26.22918621-163.41577982-8.10720257-90.60991696-51.02769017-174.2253841-120.81322304-235.42681946-7.15341395-6.19962534-14.46579332-12.39925197-22.09610223-18.12198364l37.51568416-57.38628092z" fill="#2A9B74" p-id="3190"></path><path d="M434.40851195 570.73748112c0 32.74674239 26.54711574 59.29385814 59.29385814 59.29385815 32.74674239 0 59.29385814-26.54711574 59.29385814-59.29385815 0-32.74674239-26.54711574-59.29385814-59.29385814-59.29385813-32.74674239 0-59.29385814 26.54711574-59.29385814 59.29385813M1303.30992823 758.79280076c14.30682919 9.53788613 29.24951746 16.37337055 44.66909941 20.34749042 9.21995659 2.38447089 18.59887731 3.65618903 27.97779801 4.13308269 51.02769017 2.06654135 90.1330233-25.75229255 108.73190062-42.44359264 34.17742466 18.75784273 70.42139197 25.91125668 105.55260524 20.82438536 20.02956087-2.86136583 33.70053101-21.46024315 30.83916516-41.48980402-2.86136583-20.02956087-21.46024315-33.85949513-41.48980403-30.83916515-14.94268827 2.22550677-29.88537654 0-43.87427621-5.08687262 10.01477979-13.03511105 19.07577227-26.86504529 26.54711576-41.48980402 20.34749042-39.90015634 24.63953853-80.59513717 13.03511105-120.81322305-11.92235702-41.3308399-46.73564205-73.44172192-86.47683298-79.80031267-38.46947407-6.19962534-75.50826457 11.7633929-101.41952125 49.43804246-29.88537654 43.39738126-25.43436302 107.30121705 11.44546336 166.59507519 7.94823845 12.87614563 17.16819504 24.95746806 27.34194026 36.08500189-11.44546336 8.10720257-28.29572885 16.85026549-47.37150113 16.0554423-21.77817269-0.79482319-43.55634667-14.30682919-65.01658982-40.21808588m162.77992202-29.09055335c-5.8816958-6.83548441-11.12753381-13.98889966-15.89647687-21.61920728-20.66541995-33.22363604-26.0702221-68.03691979-13.19407518-86.63579838 9.69685025-13.98889966 19.71163134-20.34749042 29.56744571-18.75784271 0.63585907 0.15896412 1.43068227 0.31792954 2.06654264 0.47689494 11.28649794 2.86136583 22.09610223 14.30682919 26.0702208 27.65986849 9.85581567 34.01846053-1.74861181 64.38073074-28.6136571 98.87608494z m0 0M1040.54116852 443.88359685l-86.7947625 10.33271064c-11.92235702 1.43068227-24.16264486 1.43068227-36.08500318 0l-86.79476251-10.33271064c-15.73751147 0-28.6136584-12.87614563-28.6136571-28.6136571s12.87614563-28.6136584 28.6136571-28.61365838l86.47683297 8.90202705c12.24028655 1.27171815 24.48057441 1.27171815 36.72086225 0l86.47683297-8.90202705c15.73751147 0 28.6136584 12.87614563 28.6136571 28.61365838s-12.87614563 28.6136584-28.6136571 28.6136571z" fill="#2A9B74" p-id="3191"></path><path d="M859.48029872 249.31072236c-78.84652406 0-142.90932528-64.06280121-142.90932526-142.90932527S780.63377466-36.50792819 859.48029872-36.50792819c15.89647689 0 28.77262252 12.87614563 28.77262252 28.77262382s-12.87614563 28.77262252-28.77262252 28.77262251C812.42672844 21.03731814 773.95725437 59.34782679 773.95725437 106.56036251s38.31050865 85.52304436 85.52304435 85.52304435c15.89647689 0 28.77262252 12.87614563 28.77262252 28.77262252 0 15.57854735-12.87614563 28.45469298-28.77262252 28.45469298z" fill="#2A9B74" p-id="3192"></path><path d="M1087.91266835 20.87835273c-15.89647689 0-28.77262252-12.87614563-28.77262252-28.77262252 0-47.05357158-38.31050865-85.52304436-85.52304435-85.52304435S888.25292124-54.94784007 888.25292124-7.89426979c0 15.89647689-12.87614563 28.77262252-28.77262252 28.77262252-15.89647689 0-28.77262252-12.87614563-28.77262252-28.77262252 0-78.84652406 64.06280121-142.90932528 142.90932528-142.90932527s142.90932528 64.06280121 142.90932527 142.90932527c0.15896412 15.89647689-12.7171815 28.77262252-28.6136584 28.77262252zM973.7759656 363.4474251c-78.84652406 0-142.90932528-64.06280121-142.90932527-142.90932526 0-15.89647689 12.87614563-28.77262252 28.77262381-28.77262252 15.89647689 0 28.77262252 12.87614563 28.77262252 28.77262252 0 47.05357158 38.31050865 85.52304436 85.52304435 85.52304435s85.52304436-38.31050865 85.52304436-85.52304435c0-15.89647689 12.87614563-28.77262252 28.77262252-28.77262252s28.77262252 12.87614563 28.77262253 28.77262252c-0.31792954 78.84652406-64.53969487 142.90932528-143.22725482 142.90932526z" fill="#2A9B74" p-id="3193"></path><path d="M1087.91266835 249.31072236c-15.89647689 0-28.77262252-12.87614563-28.77262252-28.77262252 0-15.89647689 12.87614563-28.77262252 28.77262252-28.77262252 47.05357158 0 85.52304436-38.31050865 85.52304436-85.52304435S1135.12520405 20.71938861 1087.91266835 20.71938861c-15.89647689 0-28.77262252-12.87614563-28.77262252-28.77262252S1072.01619147-36.50792819 1087.91266835-36.50792819c78.84652406 0 142.90932528 64.06280121 142.90932528 142.90932528s-64.06280121 142.90932528-142.90932528 142.90932527zM973.7759656 188.90411148c-45.62288801 0-82.66167853-37.0387905-82.66167852-82.66167851s37.0387905-82.66167853 82.66167852-82.66167853 82.66167853 37.0387905 82.66167982 82.66167853-37.19775591 82.66167853-82.66167982 82.66167851z m0-119.70046901c-20.50645454 0-37.19775591 16.69130009-37.19775462 37.19775462s16.69130009 37.19775591 37.19775462 37.19775591 37.19775591-16.69130009 37.19775591-37.19775591-16.69130009-37.19775591-37.19775591-37.19775462z" fill="#2A9B74" p-id="3194"></path><path d="M698.92588476 213.38468589m-34.17742466 0a34.17742466 34.17742466 0 1 0 68.35484932 0 34.17742466 34.17742466 0 1 0-68.35484932 0Z" fill="#2A9B74" p-id="3195"></path><path d="M1145.13998514 323.54726877m-34.17742595 0a34.17742466 34.17742466 0 1 0 68.35485062 0 34.17742466 34.17742466 0 1 0-68.35485062 0Z" fill="#2A9B74" p-id="3196"></path></svg>