<?xml version="1.0" standalone="no"?><!DOCTYPE svg PUBLIC "-//W3C//DTD SVG 1.1//EN" "http://www.w3.org/Graphics/SVG/1.1/DTD/svg11.dtd"><svg t="1678368455017" class="icon" viewBox="0 0 1024 1024" version="1.1" xmlns="http://www.w3.org/2000/svg" p-id="3834" xmlns:xlink="http://www.w3.org/1999/xlink" width="200" height="200"><path d="M527.1914584 262.53398289h-265.12143802c-21.87251863 0-39.7682157-17.89569707-39.76821571-39.7682157s17.89569707-39.7682157 39.76821571-39.76821571h265.12143802c21.87251863 0 39.7682157 17.89569707 39.7682157 39.76821571s-17.89569707 39.7682157-39.7682157 39.7682157zM633.24003361 434.86291761h-371.17001323c-21.87251863 0-39.7682157-17.89569707-39.76821571-39.7682157s17.89569707-39.7682157 39.76821571-39.76821571h371.17001323c21.87251863 0 39.7682157 17.89569707 39.7682157 39.76821571s-17.89569707 39.7682157-39.7682157 39.7682157z" fill="#FFFFFF" p-id="3835"></path><path d="M790.37750992 949.45037275H233.62249008c-87.49007455 0-159.07286282-71.58278827-159.07286283-159.07286283V233.62249008c0-87.49007455 71.58278827-159.07286282 159.07286283-159.07286283h556.75501984c87.49007455 0 159.07286282 71.58278827 159.07286283 159.07286283v556.75501984c0 87.49007455-71.58278827 159.07286282-159.07286283 159.07286283z" fill="#3889FF" p-id="3836"></path><path d="M299.90284958 512m-53.02428761 0a53.02428761 53.02428761 0 1 0 106.04857521 0 53.02428761 53.02428761 0 1 0-106.04857521 0Z" fill="#FFFFFF" p-id="3837"></path><path d="M512 512m-53.02428761 0a53.02428761 53.02428761 0 1 0 106.04857522 0 53.02428761 53.02428761 0 1 0-106.04857522 0Z" fill="#FFFFFF" p-id="3838"></path><path d="M724.09715042 512m-53.0242876 0a53.02428761 53.02428761 0 1 0 106.04857521 0 53.02428761 53.02428761 0 1 0-106.04857521 0Z" fill="#FFFFFF" p-id="3839"></path></svg>