<?xml version="1.0" standalone="no"?><!DOCTYPE svg PUBLIC "-//W3C//DTD SVG 1.1//EN" "http://www.w3.org/Graphics/SVG/1.1/DTD/svg11.dtd"><svg t="1678032842562" class="icon" viewBox="0 0 1024 1024" version="1.1" xmlns="http://www.w3.org/2000/svg" p-id="1464" xmlns:xlink="http://www.w3.org/1999/xlink" width="200" height="200"><path d="M599 578.2s56.5-84.7 56.5-141.2-113-28.2-84.7-197.7S686.6 51.8 740.2 69.7C825 98 1031.8 230.4 768.5 691.2c-226 395.5-452 254.2-508.5 197.7-28.2-28.2-84.7-113 56.5-197.7s169.5 0 197.7 0c28.3 0 84.8-113 84.8-113z" fill="#DD4238" p-id="1465"></path><path d="M299.8 465.2c-12 0-21.7-9.7-21.7-21.7 0-32.2 12.5-62.4 35.3-85.2 22.7-22.7 53-35.3 85.1-35.3 12 0 21.7 9.7 21.7 21.7s-9.7 21.7-21.7 21.7c-20.6 0-39.9 8-54.5 22.6-14.6 14.6-22.6 33.9-22.6 54.5 0.1 12-9.6 21.7-21.6 21.7zM208.2 447.7c-12 0-21.7-9.7-21.7-21.7 0-52 20.2-100.8 57-137.6 36.7-36.7 85.6-57 137.5-57 12 0 21.7 9.7 21.7 21.7s-9.7 21.7-21.7 21.7c-40.4 0-78.3 15.7-106.8 44.3-28.6 28.6-44.3 66.5-44.3 106.9 0 12-9.7 21.7-21.7 21.7z" fill="#3E6493" p-id="1466"></path><path d="M116.7 430.3c-12 0-21.7-9.7-21.7-21.7 0-71.8 27.9-139.2 78.7-189.9C224.4 168 291.8 140 363.5 140c12 0 21.7 9.7 21.7 21.7s-9.7 21.7-21.7 21.7c-60.1 0-116.7 23.5-159.2 66-42.5 42.6-66 99.1-66 159.3 0.1 11.9-9.6 21.6-21.6 21.6z" fill="#3E6493" p-id="1467"></path></svg>