<?xml version="1.0" standalone="no"?><!DOCTYPE svg PUBLIC "-//W3C//DTD SVG 1.1//EN" "http://www.w3.org/Graphics/SVG/1.1/DTD/svg11.dtd"><svg t="1678032935581" class="icon" viewBox="0 0 1100 1024" version="1.1" xmlns="http://www.w3.org/2000/svg" p-id="1155" xmlns:xlink="http://www.w3.org/1999/xlink" width="214.84375" height="200"><path d="M545.03969521 446.0257795a192.33762451 192.33762451 0 1 1 208.14619659-191.45937042A201.12016377 201.12016377 0 0 1 545.03969521 446.0257795z m0-341.2016754a150.62055996 150.62055996 0 1 0 166.86825909 149.74230498A159.40309922 159.40309922 0 0 0 545.03969521 104.8241041z" fill="#FA6869" p-id="1156"></path><path d="M937.18010322 962H152.89928809c-62.79516036 0-106.70786016-87.82539961-85.19063731-170.38127461L182.32079698 347.66133242a97.92532002 97.92532002 0 0 1 87.82539872-83.4341291h553.30001544a97.92532002 97.92532002 0 0 1 85.1906373 83.4341291l115.49039942 443.95739297c19.76071464 82.555875-23.7128581 170.38127461-86.94714463 170.38127461z" fill="#FF8894" p-id="1157"></path><path d="M545.03969521 726.18880273a158.52484599 158.52484599 0 0 1-164.67262294-151.05968612 17.56508027 17.56508027 0 0 1 35.13015966 0 131.73809854 131.73809854 0 0 0 259.08492745 0 17.56508027 17.56508027 0 1 1 35.13015966 0A158.52484599 158.52484599 0 0 1 545.03969521 726.18880273z" fill="#FFD2D4" p-id="1158"></path></svg>