<?xml version="1.0" standalone="no"?><!DOCTYPE svg PUBLIC "-//W3C//DTD SVG 1.1//EN" "http://www.w3.org/Graphics/SVG/1.1/DTD/svg11.dtd"><svg t="1678368590065" class="icon" viewBox="0 0 1024 1024" version="1.1" xmlns="http://www.w3.org/2000/svg" p-id="5216" xmlns:xlink="http://www.w3.org/1999/xlink" width="200" height="200"><path d="M505.87404313 507.39641469m-472.33593375 0a472.33593375 472.33593375 0 1 0 944.67186843 0 472.33593375 472.33593375 0 1 0-944.67186843 0Z" fill="#29CCA4" p-id="5217"></path><path d="M725.98582063 387.08872344h-9.69489563v-48.67841532a51.84729656 51.84729656 0 0 0-26.11974281-42.18377625S638.48076031 270.37347781 512.07061906 270.37347781c-126.39445406 0-178.16331375 25.853055-178.16331375 25.85305407a51.84729656 51.84729656 0 0 0-26.11974281 42.18377625v48.67841531h-9.72627A29.27293687 29.27293687 0 0 0 268.85110625 416.22047281v29.19449907a29.27293687 29.27293687 0 0 0 29.19449906 29.21018625h9.71058282v199.38854624c0.06274969 12.34608844 7.84376625 23.34304969 19.48391625 27.50024532v16.26797156a38.90508188 38.90508188 0 1 0 77.81016375 0v-14.55803063h213.91520156v14.55803063a38.90508188 38.90508188 0 1 0 77.81016375 0v-16.26797156a29.36706188 29.36706188 0 0 0 19.48391625-27.50024532V474.62515812h9.71058281A29.27293687 29.27293687 0 0 0 755.16463156 445.41497188v-29.19449907a29.36706188 29.36706188 0 0 0-29.19449906-29.13174937h0.01568812zM414.74516375 319.00482969a9.77333344 9.77333344 0 0 1 9.72627-9.72627h175.07286938c5.36513625 0.0470625 9.6792075 4.37682188 9.72627093 9.72627v19.40547843a9.75764531 9.75764531 0 0 1-9.72627093 9.77333344H424.47143375a9.75764531 9.75764531 0 0 1-9.69489469-9.77333344V319.00482969H414.74516375zM371.00832125 664.28743344a24.34705125 24.34705125 0 1 1-0.03137531-48.67841532 24.34705125 24.34705125 0 0 1 0.03137531 48.67841532z m281.99909531 0a24.34705125 24.34705125 0 1 1 0-48.67841532 24.34705125 24.34705125 0 0 1 0 48.67841532z m24.34705125-111.85211063a9.77333344 9.77333344 0 0 1-9.71058281 9.71058281h-311.24065687a9.77333344 9.77333344 0 0 1-9.77333344-9.71058281v-155.62032843a9.77333344 9.77333344 0 0 1 9.77333344-9.72627094h311.24065687c5.34944906 0.0470625 9.6792075 4.37682188 9.71058281 9.72627094v155.62032843z" fill="#FFFFFF" p-id="5218"></path></svg>